<svg width="24" height="24" viewBox="0 0 24 24" fill="none" xmlns="http://www.w3.org/2000/svg">
<g clip-path="url(#clip0)">
<path d="M23.641 14.9029C22.0384 21.3315 15.5272 25.2438 9.0978 23.6407C2.67109 22.038 -1.24125 15.5265 0.362137 9.09836C1.96412 2.66903 8.47528 -1.24361 14.9027 0.359082C21.3316 1.96177 25.2437 8.47405 23.6409 14.903L23.641 14.9029H23.641Z" fill="#F7931A"/>
<path fill-rule="evenodd" clip-rule="evenodd" d="M17.2928 10.2904C17.5317 8.69341 16.3159 7.83498 14.6533 7.26233L15.1927 5.09916L13.8759 4.77103L13.3508 6.87728C13.0047 6.79095 12.6492 6.70956 12.2958 6.62891L12.8247 4.50879L11.5087 4.18066L10.9691 6.34317C10.6826 6.27795 10.4012 6.21346 10.1282 6.14556L10.1298 6.13875L8.31388 5.68529L7.96359 7.09172C7.96359 7.09172 8.94053 7.31566 8.91995 7.32943C9.45318 7.46252 9.5496 7.8155 9.53361 8.09531L8.91925 10.5597C8.95595 10.569 9.0036 10.5825 9.05615 10.6036L9.01789 10.5941C8.98542 10.5859 8.95165 10.5775 8.91695 10.5692L8.05585 14.0214C7.99069 14.1834 7.82527 14.4266 7.45246 14.3343C7.46566 14.3534 6.49539 14.0954 6.49539 14.0954L5.84163 15.6027L7.55523 16.0299C7.74275 16.0769 7.92808 16.1253 8.11154 16.1731L8.11193 16.1731L8.11253 16.1733C8.24058 16.2067 8.36771 16.2399 8.49406 16.2721L7.94915 18.4601L9.26442 18.7883L9.80407 16.6235C10.1634 16.721 10.5121 16.811 10.8534 16.8958L10.3157 19.0504L11.6325 19.3785L12.1774 17.1946C14.4228 17.6196 16.1112 17.4482 16.8218 15.4173C17.3945 13.7821 16.7933 12.8389 15.612 12.2238C16.4724 12.0254 17.1205 11.4595 17.2933 10.2905L17.2929 10.2902L17.2928 10.2904ZM14.2842 14.5091C13.9109 16.0093 11.5626 15.3891 10.4882 15.1054H10.4881C10.3915 15.0798 10.3052 15.057 10.2315 15.0387L10.9546 12.14C11.0444 12.1624 11.1541 12.187 11.2784 12.2149H11.2784C12.3898 12.4643 14.6668 12.9754 14.2843 14.5091H14.2842ZM11.5013 10.8696C12.3971 11.1087 14.3512 11.6302 14.6915 10.2666H14.6916C15.0391 8.8721 13.14 8.45168 12.2126 8.24633C12.1082 8.22322 12.0162 8.20285 11.941 8.18411L11.2854 10.8131C11.3473 10.8285 11.4199 10.8479 11.5013 10.8696Z" fill="white"/>
</g>
<defs>
<clipPath id="clip0">
<rect width="24" height="24" fill="white"/>
</clipPath>
</defs>
</svg>
