<svg xmlns="http://www.w3.org/2000/svg" xmlns:xlink="http://www.w3.org/1999/xlink" viewBox="0 0 841.19 511.01"><defs><style>.cls-1{opacity:0.9;}.cls-2{fill:#1d437f;}.cls-3{fill:#80acdf;}.cls-4{fill:#dff2ff;}.cls-5{fill:#85c2e5;}.cls-6{fill:#184877;}.cls-7{fill:#4980f9;}.cls-8{fill:#08234d;}.cls-9{fill:#65bbe3;}.cls-10{fill:#fff;}.cls-11{fill:#202276;}.cls-12{fill:#1f2036;}.cls-13{fill:#020202;isolation:isolate;opacity:0.2;}.cls-14{fill:#ed9d80;}.cls-15{fill:#f2b78f;}.cls-16{fill:#d6d6d6;}.cls-17{fill:#0e3560;}.cls-18{fill:#badff8;}.cls-19{fill:#30a9df;}.cls-20{fill:#172648;}.cls-21{fill:#040c18;}.cls-22{fill:#041a3a;}.cls-23{fill:#f5cbbf;}.cls-24{fill:#e0b4ad;}.cls-25{fill:#67b7af;}.cls-26{fill:#28a08b;}.cls-27{fill:#e6e6eb;}.cls-28{fill:url(#Dégradé_sans_nom_2);}.cls-29{fill:#eee6cc;}</style><linearGradient id="Dégradé_sans_nom_2" x1="748.79" y1="682.81" x2="748.79" y2="811.81" gradientTransform="matrix(1, 0, 0, -1, 0, 781.18)" gradientUnits="userSpaceOnUse"><stop offset="0" stop-color="#80c7ee"/><stop offset="0.51" stop-color="#c7dee9"/><stop offset="0.7" stop-color="#e4e7e7"/></linearGradient></defs><g id="Calque_2" data-name="Calque 2"><g id="Calque_1-2" data-name="Calque 1"><g class="cls-1"><path class="cls-2" d="M807.7,497.2c-6.32-22.12,10.5-43.79,14.1-66.51,4.91-31-14.88-59.72-30-87.2-20.14-36.54-33.45-80-21.27-119.93,8.07-26.43,26.7-49.18,31.62-76.38,7.15-39.5-17.68-79.77-52-100.6S674,21.18,633.88,22.3C593,23.44,551.59,30.18,515,48.38,484.6,63.44,458.15,86,426.65,98.49,353.7,127.36,271.94,96.88,193.5,98A288.25,288.25,0,0,0,71.23,127.12c-18.54,9.06-36.43,20.43-49.34,36.52-29.08,36.26-26.8,90-7.13,132.11,9,19.31,21.2,37,29.86,56.51s13.63,41.77,7.25,62.1-27.79,40.5-22,63.31c5.52,21.89,27.34,24.32,46.36,24.75C136.65,503.77,749.51,497.38,807.7,497.2Z"/></g><path class="cls-3" d="M461.12,223.3H318.36a8.72,8.72,0,0,1-8.68-8.68V94.82a8.72,8.72,0,0,1,8.68-8.68H461.12a8.72,8.72,0,0,1,8.68,8.68v119.8A8.55,8.55,0,0,1,461.12,223.3Z"/><path class="cls-4" d="M438.45,169H341.87a5.91,5.91,0,0,1-5.87-5.88h0a5.91,5.91,0,0,1,5.87-5.88h96.58a5.91,5.91,0,0,1,5.87,5.88h0C444,166.2,441.53,169,438.45,169Z"/><path class="cls-4" d="M438.45,187.47H341.87a5.91,5.91,0,0,1-5.87-5.88h0a5.91,5.91,0,0,1,5.87-5.88h96.58a5.91,5.91,0,0,1,5.87,5.88h0C444,184.67,441.53,187.47,438.45,187.47Z"/><path class="cls-5" d="M359.79,182.15a2,2,0,1,1-2-2A1.91,1.91,0,0,1,359.79,182.15Z"/><path class="cls-5" d="M366.79,182.15a2,2,0,1,1-2-2A1.91,1.91,0,0,1,366.79,182.15Z"/><path class="cls-5" d="M373.78,182.15a2,2,0,1,1-1.95-2A2.1,2.1,0,0,1,373.78,182.15Z"/><path class="cls-5" d="M380.5,182.15a2,2,0,1,1-2-2A1.91,1.91,0,0,1,380.5,182.15Z"/><path class="cls-5" d="M387.5,182.15a2,2,0,1,1-2-2A1.91,1.91,0,0,1,387.5,182.15Z"/><path class="cls-5" d="M394.5,182.15a2,2,0,1,1-2-2A1.91,1.91,0,0,1,394.5,182.15Z"/><path class="cls-5" d="M401.5,182.15a2,2,0,1,1-2-2A2.1,2.1,0,0,1,401.5,182.15Z"/><path class="cls-5" d="M408.21,182.15a2,2,0,1,1-1.95-2A1.91,1.91,0,0,1,408.21,182.15Z"/><path class="cls-5" d="M415.21,182.15a2,2,0,1,1-2-2A1.91,1.91,0,0,1,415.21,182.15Z"/><circle class="cls-4" cx="390.02" cy="119.17" r="22.11"/><path class="cls-6" d="M390,118.33a6.37,6.37,0,0,0,5.32-2.8,7.54,7.54,0,0,0,1.4-4.2,7,7,0,1,0-12.6,4.2A8.37,8.37,0,0,0,390,118.33Z"/><path class="cls-6" d="M402.34,130.65c0,4.48-24.64,4.48-24.64,0v-5c.84-7,22.68-7.28,24.64,0Z"/><path class="cls-7" d="M346.63,180.47v-.28a2.24,2.24,0,1,0-4.48,0v.28h-.28v4.2c0,.84,5.32.84,5.32,0v-4.2Zm-3.64-.28a1.4,1.4,0,0,1,2.8,0v.28H343Zm1.68,2.52v1.12a.28.28,0,1,1-.56,0v-1.12c-.28,0-.28-.28-.28-.56a.84.84,0,1,1,1.68,0C345,182.15,345,182.43,344.67,182.71Z"/><path class="cls-7" d="M344.39,162.56a1.45,1.45,0,0,0,1.12-.56,1,1,0,0,0,.28-.84,1.4,1.4,0,0,0-2.8,0,1,1,0,0,0,.28.84C343.55,162.56,343.83,162.56,344.39,162.56Z"/><path class="cls-7" d="M346.91,165.36c0,.84-5.32.84-5.32,0v-1.12c.28-1.4,4.76-1.68,5.32,0Z"/><path class="cls-5" d="M378.26,164.8H357a1.81,1.81,0,0,1-1.68-1.68h0a1.81,1.81,0,0,1,1.68-1.68h21.27a1.81,1.81,0,0,1,1.68,1.68h0A1.81,1.81,0,0,1,378.26,164.8Z"/><path class="cls-5" d="M406,164.8H384.7a1.81,1.81,0,0,1-1.68-1.68h0a1.81,1.81,0,0,1,1.68-1.68H406a1.8,1.8,0,0,1,1.67,1.68h0A1.61,1.61,0,0,1,406,164.8Z"/><path class="cls-6" d="M397,205.39H378a5,5,0,0,1-5-5h0a5,5,0,0,1,5-5h19a5,5,0,0,1,5,5h0A5,5,0,0,1,397,205.39Z"/><rect class="cls-8" x="27" y="494.96" width="783.46" height="16.04" rx="8.02"/><path class="cls-9" d="M484.47,398.92h46.64c28.67,0,49.54-18.19,54.47-47.46l11.57-68.72A5.64,5.64,0,1,0,586,280.87l-11.57,68.71c-4,23.83-20.22,38.06-43.35,38.06H484.47a5.64,5.64,0,1,0,0,11.28Z"/><path class="cls-10" d="M486.89,494.84l20.93-97a22.36,22.36,0,0,1,43.76.41l19,96.56,3.81-.75-19-96.56A26.24,26.24,0,0,0,504,397L483.1,494Z"/><path class="cls-3" d="M143.58,246H34.08a7.47,7.47,0,0,1-7.48-7.48V147.73a7.47,7.47,0,0,1,7.48-7.48h109.5a7.47,7.47,0,0,1,7.48,7.48v90.81C151.33,242.81,147.86,246,143.58,246Z"/><path class="cls-10" d="M89.1,236.14,88,235.6c-1.33-.53-29.38-15.76-33.38-35.52a185.84,185.84,0,0,1-2.94-38.46v-1.87l1.87-.27c.27,0,21.37-1.6,35-5.87l.53-.27.53.27c13.63,4.27,34.72,5.87,35,5.87l1.87.27v1.87a185.84,185.84,0,0,1-2.94,38.46c-4,19.76-32.31,34.72-33.38,35.52ZM55.45,163.76c0,5.07-.27,20.3,2.94,35.79,3.2,16,25.64,29.37,30.44,32.31,4.81-2.67,27.25-16.29,30.45-32.31,3.21-15.23,2.94-30.72,2.94-35.79-5.34-.54-21.64-2.14-33.39-5.88C77.08,161.62,61.06,163.22,55.45,163.76Z"/><path class="cls-10" d="M89.1,224.92c-8.55-5.08-22.7-15.76-24.84-26.71-2.4-11.22-2.67-22.43-2.94-29.38a181.93,181.93,0,0,0,27.78-5.07,182.15,182.15,0,0,0,27.78,5.07,146.5,146.5,0,0,1-2.94,29.38C111.54,209.16,97.38,219.84,89.1,224.92Z"/><path class="cls-11" d="M223.61,135.83c-6.66,6-8.33,16.64-13,18-4.32,1.34-8.65,5.66-6.65,10,1.33,2.33,3.66,4.66,3.32,7.66-.33,1.66-2,3-3.32,4-1.34,1.67-3,3-4,5s-1.33,4.33,0,6a6.65,6.65,0,0,0,3.33,2.66c1,.67,2.33,2,2.33,3.33.33,2.67-3,4.66-5,6-3.33,2.33-3.33,9-3.33,12.31,0,3-.34,7.33,1.33,9.66s4.66,3.33,7.66,4c.66,0,5.32.33,5.32.66a20.41,20.41,0,0,0,4.33,7.33,10.56,10.56,0,0,0,8.32,3.32c3.33-.33,6.33-2.66,6.66-5.32.34-2-.66-3.66-1-5.33s-.33-3.66,1-5c2-2,6-.67,8.66-2,3-1.67,3-5,2.66-8s-.33-6.33,2.33-8c1.67-1,4.33-.67,6.33-1,4.66-1,7.66-6,6-10-1-2.33-3.33-4-4.66-6.32a7.58,7.58,0,0,1,.67-8.33c1-1.66,2.33-2.66,3.33-4a12.31,12.31,0,0,0,1.33-6,114.08,114.08,0,0,0-1.33-18.32"/><path class="cls-12" d="M304.18,173.78c-2.33,3-11,8-28,20-10.65,7.32-15.31,10-18.64,11.65-6,3.33-8,1-7.33-2.67.67-6-26.3-16.31-5.66-16,18.65-2.66,44.95-17,48.94-20.3C299.18,161.46,306.51,169.45,304.18,173.78Z"/><path class="cls-13" d="M255.9,205.74s3.66-2,5-2.66c1.33-.34,5-3,5-3l-1.33-1.66s-5-4.66-8-7-8.66-1.66-8.66-1.66Z"/><path class="cls-11" d="M218.28,158.8c.67,1.33,5.66,13.32,5.66,13.32l.33-4.33Z"/><path class="cls-12" d="M266.56,142.82c3-.67,3.66,3,12.31,7.32,12.32,6.33,15.32,8.66,23,15.65,5,4.33.66,13.65-6.33,9.32-6-3.33-28-24.64-31.63-26.63C261.56,146.81,264.23,143.15,266.56,142.82Z"/><path class="cls-14" d="M236.59,174.78a127.59,127.59,0,0,0,0,17c.34,4.66-3.66,8.65-7,8.65h0c-3.33-.33-6.66-4.66-6.66-9.32,0-9.65,1-22,1-22.64Z"/><path class="cls-12" d="M216.28,217.39c-1.33-3.66-3-7.32-4.32-11a21.47,21.47,0,0,1-1-10.32c2-13,23.64-10.32,32.62-9.66a25.23,25.23,0,0,1,5,.67,13.53,13.53,0,0,1,8.32,5c2,2.66,3,6,4.33,9,5,12.32,12.65,13,7,27.63-8.32,21.31,3.66,54.27,4.33,64.92H219c0-1,3-13,3.33-14.31,1-4,1.66-7.66,2.33-11.65.66-6.66,1-13.32,0-19.65-1.67-8.65-3-17.64-6-26A15.07,15.07,0,0,0,216.28,217.39Z"/><path class="cls-5" d="M274.55,327.93a308.06,308.06,0,0,0-2-34H219c-4.33,22.3.33,34,.33,34Z"/><path class="cls-5" d="M204,485.74s-.67-3-2.67-3c-3.66-.33-2.66,2-5.32,2.66-1,0-2,.34-1.67-1.33,1.33-11.65,11.65-85.9,22.31-102.87,7.65-12.32,24.63-6.33,17.64,11C227.27,409.16,208,469.75,204,485.74Z"/><path class="cls-5" d="M235.59,387.19c-2,7-15,13.65-17.64-11.32-1.33-12.32-1.67-56.93-1-62.93,1-6,3-12.31,8.66-15.31,13.65-7.32,22.3,10,20.3,32.63C244.92,342.58,240.92,369.88,235.59,387.19Z"/><path class="cls-5" d="M273.22,487.4a3.69,3.69,0,0,0-3-1.66c-1.33,0-4,1-6.66,5.66-.67-26.31-10.65-86.57-4.33-108.21,3.66-14,19.64-14.31,19,2.67C277.54,403.83,272.88,452.44,273.22,487.4Z"/><path class="cls-5" d="M245.25,331.59c-2.66-22.64,10-39.95,24.3-34.63,3,1,4,9.66,4.33,15.65s3,54.6,4,65.59c2,25.3-16.32,17.31-18.32,10.32C255.24,374.2,247.25,350.9,245.25,331.59Z"/><path class="cls-15" d="M239.26,135.16c7,0,14,6.66,14.65,12.32,1.33,10.65,2,17,0,21-3.33,7.33-8.66,13.65-13.66,13.65-4.66,0-6.65-3-11-7s-6.33-5-7.33-15C219.61,135.83,232.6,135.16,239.26,135.16Z"/><path class="cls-11" d="M236.59,132.16c-7-1-13.65,3.33-16.31,7.66-6,9,3,52.94,2.33,45.61a19,19,0,0,1,1.33-8.65,26.34,26.34,0,0,0,2.33-6.66c.33-2.33,0-4.66.33-7a22.67,22.67,0,0,1,4-8c2.33-3,5.33-6,5-10C234.93,138.49,253.57,133.5,236.59,132.16Z"/><path class="cls-11" d="M250.58,136.82c9,6.66,4.66,25.31,4.66,22.31.66-12-21-8-22-13.65C231.27,133.83,233.6,124.51,250.58,136.82Z"/><path class="cls-15" d="M227.6,259.68c2.67-.34,8.66-.67,6.33-2s-7-1.67-10.65-1.67C220,256,224.61,260,227.6,259.68Z"/><path class="cls-15" d="M219,262.67c1.33,3.33,10.65,5.66,13.31,6.66,2.67.67,9.66,0,7.66-3.33s-6.32-4-13.32-7.66C221.61,255.68,218,259.68,219,262.67Z"/><path class="cls-12" d="M219.28,263.67c-3,.67-3.66-2.66-12.65-7.32-13.32-7-15.32-8.66-24-15-5.33-4.32-1.67-14,6-10.32,6.33,3,31,23,35,25C226.27,257,221.94,263,219.28,263.67Z"/><path class="cls-15" d="M266.22,143.48a8,8,0,0,0-4.66-4.66c-2.33-.66-7.65,2.33-9,3.66a2.42,2.42,0,0,0,1.34,4,21.8,21.8,0,0,0,8,.33C265.56,146.48,267.22,145.15,266.22,143.48Z"/><path class="cls-13" d="M223.94,193.76s1.33,7,.67,10-7.33,14.65-7.33,14.65l-2-4.66Z"/><path class="cls-12" d="M180.33,233.71c1.33-3.66,5.66-11.66,19.31-27.64a189.17,189.17,0,0,1,15-15.64c5-4.66,10-1.67,10.32,2,.67,6-2.33,13.32-5,16-14,14.65-25.31,25.31-28.3,29.64C187.32,244.36,178.33,238.37,180.33,233.71Z"/><path class="cls-11" d="M196.22,492.42c4.29,0,5.14,4.28,8.57,4.71,3.85.85,7.27,2.14,13.69,0s-.42-5.57-5.56-7.71c-3.85-1.71-4.71-3.42-5.57-6.42,0-3,3.43-13.7,3-13.7-12-.85-15.41-3-15.84-3.85L192.37,483h0a7.9,7.9,0,0,0-.85,3C190.66,492.42,190.66,492.85,196.22,492.42Z"/><path class="cls-11" d="M194.51,465.88v-.43S194.08,465.45,194.51,465.88Z"/><path class="cls-11" d="M260.89,494.55h0c.45,2.26,1.81,2.26,5.88,2.26a112.37,112.37,0,0,1,13.1.9c4.52.45,4.07,2.71,11.3,0s2.71-4.07-3.17-6.78a36.43,36.43,0,0,1-10.39-7.23,10.8,10.8,0,0,1-1.36-3.16c.46-1.36.91-11.75.91-11.75s-1.81.45-8.14.45-9-.45-9.94-.9c0,0,1.81,17.62,1.81,18.52C261.34,487.32,260.44,493.19,260.89,494.55Z"/><polygon class="cls-16" points="481.84 495.11 440.88 350 450.25 348.19 484.89 493.39 481.84 495.11"/><polygon class="cls-16" points="439.9 495.11 398.94 350 408.31 348.19 442.95 493.39 439.9 495.11"/><polygon class="cls-16" points="140.31 493.39 174.94 348.19 185.78 350 143.29 493.39 140.31 493.39"/><polygon class="cls-16" points="187.64 493.39 222.28 348.19 233.11 350 190.62 493.39 187.64 493.39"/><rect class="cls-10" x="116.95" y="341.39" width="374.9" height="13.84" rx="3.15" transform="translate(608.79 696.62) rotate(-180)"/><path class="cls-17" d="M222.22,341.57l123.19.28v-3.37l-122.78-.29a.41.41,0,0,0-.41.42Z"/><path class="cls-4" d="M264.12,341.66l83.28.19,8.13-51a3.92,3.92,0,0,0-3.93-4.74L277.7,286a5.7,5.7,0,0,0-5.44,4.71Z"/><path class="cls-17" d="M277.7,286H280a5.71,5.71,0,0,0-5.44,4.71l-8.13,51h-2.27l8.14-51A5.7,5.7,0,0,1,277.7,286Z"/><path class="cls-17" d="M301.14,313.9c-.81,5.05,2.6,9.15,7.61,9.16a11.07,11.07,0,0,0,10.52-9.12c.81-5.05-2.6-9.15-7.61-9.16A11.06,11.06,0,0,0,301.14,313.9Z"/><path class="cls-17" d="M471.1,340.37H471l-60.19-.06a2.69,2.69,0,1,1,0-5.37L471,335a2.69,2.69,0,0,1,.13,5.37Z"/><path class="cls-17" d="M387.46,281.42l.06.13,25.33,54.6a2.69,2.69,0,1,1-4.88,2.26l-25.33-54.6a2.69,2.69,0,0,1,4.82-2.39Z"/><path class="cls-18" d="M482,33.66v-1.6a5.42,5.42,0,0,0-5.4-5.4H447.08a5.42,5.42,0,0,0-5.4,5.4v64.5A2.32,2.32,0,0,0,444,98.88h83.82a2.31,2.31,0,0,0,2.31-2.32V36a2.31,2.31,0,0,0-2.31-2.32Z"/><path class="cls-10" d="M529.68,36.18H450a3.57,3.57,0,0,0-3.55,3.26L441.73,95a3.55,3.55,0,0,0,3.55,3.86H526a3.56,3.56,0,0,0,3.56-3.32L533.24,40A3.56,3.56,0,0,0,529.68,36.18Z"/><path class="cls-18" d="M528.22,98.88H444a2,2,0,0,1-2-2.48l13.18-59.24a3.88,3.88,0,0,1,3.64-3.08h80.9a3.69,3.69,0,0,1,3.64,4.2l-13.1,59A2,2,0,0,1,528.22,98.88Z"/><circle class="cls-19" cx="539.29" cy="30.99" r="20.15"/><path class="cls-10" d="M539.29,52a21.15,21.15,0,0,1-21-21,21,21,0,0,1,42,0A21.15,21.15,0,0,1,539.29,52Z"/><path class="cls-20" d="M529.94,25.85a1.37,1.37,0,0,0-1.37,1.37V42a1,1,0,0,0,1,1H549a1,1,0,0,0,1-1V27.22a1.37,1.37,0,0,0-1.37-1.37Zm10.27,8.27v4.59a1.23,1.23,0,1,1-2.45,0V34.12a2.43,2.43,0,0,1-1.53-2.45,2.76,2.76,0,1,1,5.51,0A2.43,2.43,0,0,1,540.21,34.12Z"/><path class="cls-20" d="M547.86,25.93h-2.14V25a6.74,6.74,0,1,0-13.48,0v.92H530.1V25a8.88,8.88,0,0,1,17.76,0v.92Z"/><path class="cls-21" d="M466.88,483.9l.84,5.59a3.36,3.36,0,0,1-2.5,3.77c-5.83,1.47-19,4.63-27.53,5.56a3.37,3.37,0,0,1-2.15-6.21c5.51-3.45,14.47-5.07,17.61-10,.55-.86-.27-5.6.74-5.67,2.34-.16,9.22-.67,11.55-.63C467.08,476.31,466.64,482.27,466.88,483.9Z"/><path class="cls-22" d="M525.77,349.73s-63,10.83-71.45,19.71c-4.46,4.7-.43,107.48-.43,107.48s6.34,3.49,11.55-.63L476,400c.3-2,0-13.34,0-13.34s13.54-.32,15.92-.32c16.66,0,55.16-1.35,60.07-13,3.8-9,4-9.75,3.13-17.58a8.92,8.92,0,0,0-9.74-7.83Z"/><path class="cls-21" d="M485.18,475.3l.82,15.76a5.63,5.63,0,0,1-4.46,6.18c-6.55,1.34-18,3.47-25.23,3.7a3.43,3.43,0,0,1-2.27-6.11c5.54-4.31,20.85-9.44,18.27-17.91C475.32,476.49,485.18,475.3,485.18,475.3Z"/><path class="cls-8" d="M536.1,352.77s-62,15.75-69.68,25.27c-4.07,5,5.89,98.88,5.89,98.88s7.59,3.2,12.87-1.62l5.24-68.54c.14-2.05-1.08-13.3-1.08-13.3s13.47-1.38,15.84-1.57c13.77-1.11,27.8-2.72,41.09-6.62,4.57-1.34,9.3-2.95,13.23-5.7,5.12-3.56,6.91-10.5,7.13-16.5.25-6.67-3.12-15-11.17-13.64Z"/><path class="cls-23" d="M480.87,242.74l-11.08,10.8c3.21,3.07,40.56,11.75,40.56,11.75l10.17-12.57S487.92,245.07,480.87,242.74Z"/><path class="cls-23" d="M440.43,193.86s-3.31-2.46-3.2,1.69-1.63,4.63-.63,8.49c.86,3.41-.8,7.4,5.25,9.38.15-.29,17,22.82,21.79,30.87a10.49,10.49,0,0,0,2.19,3h0s3.06,5.66,4.68,6.86l10.36-11.39c-10.11-12.25-32.34-30.74-33.5-32.82,0,0-2-9.08-3-11.46A24.41,24.41,0,0,0,440.43,193.86Z"/><path class="cls-19" d="M565.36,355.53c-28.49,2.92-45.94-4.65-45.94-4.65a292,292,0,0,0-8.15-45.82c-2-7.46-7.15-42.27-2.18-47.14,5.3-4.87,13.76-5.43,15.75-8.35l17.55-.33h0L556.3,257s11.58,5.35,10.26,13.78c-2.32,14.93-3.32,45.42-2.65,51.91S565,355.53,565.36,355.53Z"/><path class="cls-13" d="M554.74,279.6l-3.31,19.55,2.65,18.55-21.2,10.6c-1.33,1-19.82-1.22-16.84-2.88,4.78-2.65,12.58-7.46,17.9-9.58,3.91-1.55,12-4.16,12.54-9.44.88-8,1-13.18-.64-21-1.31-6.06-2.42-11.22.15-17.08,1.37-3.13,2.78-6.67,5.11-9.25Z"/><path class="cls-23" d="M550.19,312.79l15.37,5.09c3-4.64.75-45.05.75-45.05l-17.72,1S551,304.51,550.19,312.79Z"/><path class="cls-19" d="M566.81,267.27a57.06,57.06,0,0,1,1.48,15.84c-2,.41-22.19.81-22.19.81-1.32-15.77,1.5-20.29,1.5-20.29C553.23,251.9,564.82,260,566.81,267.27Z"/><path class="cls-19" d="M514.27,270.65a72.58,72.58,0,0,1-15.46-5.81c.52-2,5.66-17.26,5.66-17.26,8.06,2.08,18.52,1,18.52,1C531.28,259.19,522.16,272.45,514.27,270.65Z"/><path class="cls-23" d="M479.68,341.46c4.5,1.6,6.51-1.3,11.09-.75,4.26.64,8.6,1.59,12.76-3.56a10.92,10.92,0,0,0,2-.55c1.79-.44,3.58-.84,5.38-1.25,2.31-.51,4.61-1,6.92-1.5,6.23-1.32,12.48-2.65,18.76-3.75,6.06-1.06,12.11-2.52,18.14-3.89a17.5,17.5,0,0,0,4.26-1.36c3.28-1.72,6.8-6.15,7.4-9.56L550,312.79c-16.46,5.18-45.76,17.69-48.41,18,0,0-11.64,4-14.61,4.37s-9.31,5.08-9.31,5.08S477.83,340.9,479.68,341.46Z"/><path class="cls-24" d="M528.15,234.73s-1.33,4.31-2.32,8.62h0l-1,4c-.67,2.65-.67,4.31-.34,4.64,1.33,1,3,8.94,14.58,1.32,1.66-1,3-4,3.64-7.28.33-2,.67-4,1-5.3a5.87,5.87,0,0,0,.33-1.66l1-5Z"/><path class="cls-23" d="M530.39,204c13,2.81,15.35,17.41,13.58,24.21A31.71,31.71,0,0,1,537.44,241a21.27,21.27,0,0,1-10,6.32c-3.16.94-8.87,2.18-11.83.25-2.45-1.94-2.62-16.37-1.28-23.88a40.13,40.13,0,0,1,2.55-11.2C518.7,208,517.7,201.23,530.39,204Z"/><path class="cls-8" d="M546.71,202a45.65,45.65,0,0,0-9.62-1.82c-1-.22-4.47-.22-5.32-.78-1.22-.79-2.19-2.12-3.62-2.29-1.21-.15-2.32.58-3.42,1.11-1.71.83-1.45,2.07-3.36,2-1.72-.09-4.71.62-5.42,2.2-.55,1.22-2.15,1.74-3.2,2.57a4,4,0,0,0-1.08,5.25,20.34,20.34,0,0,0,5.18,5.82,15.73,15.73,0,0,0,11.36,3.15c2.67-.37,5.19-1.52,7.85-1.89a2.39,2.39,0,0,1,1.77.24,2.53,2.53,0,0,1,.77,1.32c.94,2.87,1.29,5.79,2,8.68.68,2.7.51.7,2.18,1.81,1.47,1,.81,5.61,1.64,6s-1.22,4.86-1,5.88c.44.56,4.24-3,4.6-3.33,2.36-2.11,4.63-4,6-6.93,2.5-5.42,4.4-11.94,3.09-17.92C555.93,207.64,551.83,203.93,546.71,202Z"/><path class="cls-23" d="M546.63,228c1.86,1.21,2.18,4.25.57,6.73s-4.44,3.83-6.3,2.62-2.19-4.25-.57-6.74S544.77,226.77,546.63,228Z"/><path class="cls-25" d="M761.18,344.24s-.09-27.33,18.4-54.77,42.87-24.54,49.23-9.23-6.7,26.75-27.32,37.84S761.18,344.24,761.18,344.24Z"/><path class="cls-25" d="M746.48,373.84s-2.06-34.22-31-55.21-74.23,4.53-54.55,33.48C671.74,366.05,714.26,355.56,746.48,373.84Z"/><path class="cls-25" d="M760.65,403.17s5.68-35.06,37.87-61.18,55.83,15.18,34.52,34.46S790.08,387.08,760.65,403.17Z"/><path class="cls-25" d="M742.79,319.47s-2.21-39.83-26-55.17-49.9-5.79-49.36,14.43S727.07,303.18,742.79,319.47Z"/><path class="cls-25" d="M748.11,283.28c-4.93-17.41,4.35-39.16,16.2-51.47,10.64-11.06,28.79-9.08,35.54,5.27,10.2,21.7-21.2,31-34.94,38C760.08,277.5,753.29,282.73,748.11,283.28Z"/><path class="cls-25" d="M738.32,267.66s9.36-27.36-1.1-48.73-38.44-20.54-43.53-.81S725,253.92,738.32,267.66Z"/><path class="cls-25" d="M744.65,419.41s-10.43-44.34-54.15-49.71S642.37,403,658.76,416.32,705.26,416.05,744.65,419.41Z"/><path class="cls-26" d="M696.19,394.22a.67.67,0,0,1,.82-.47c21,5.82,35.09,14.67,43.24,21.08a74.51,74.51,0,0,1,11.45,10.9,231.51,231.51,0,0,0,1.82-24.14q.13-6.29,0-12.56c-4-9.93-20.08-43.5-58.49-49.42a.67.67,0,1,1,.2-1.32c35.68,5.5,52.47,34.43,58.2,47.13-.08-3.06-.18-6.13-.33-9.2-.41-8.45-1.11-16.9-2-25.33-.63-6.18-1.39-12.34-2.2-18.49-3-7-15.16-31.49-42.48-45.44a.65.65,0,0,1-.29-.89.67.67,0,0,1,.89-.3C731,298,743.43,318.11,748.39,328q-1.92-13.8-4.34-27.51c-2.88-16.19-6.17-32.32-10-48.3-3.23-10-9.36-23-20.71-31.72a.67.67,0,1,1,.82-1.06c21,16.22,24.53,46.62,24.56,46.93a.73.73,0,0,1-.07.36q3.27,13.92,6,27.95c1.74-9,7.62-30.39,25.24-40.41a.68.68,0,0,1,.91.25.67.67,0,0,1-.25.91c-20.33,11.57-24.62,38.85-25.16,43,.12.61.25,1.22.37,1.83,3.21,16.7,5.89,33.51,7.88,50.42.36,3.16.69,6.33,1,9.5,4-13.51,16.61-47,48-63.33a.68.68,0,0,1,.91.28.67.67,0,0,1-.29.9c-34,17.72-45.72,55.91-48.25,65.85.38,4.08.71,8.15,1,12.24.52,8.51.83,17,.77,25.58,0,2.91-.13,5.83-.25,8.75a85.53,85.53,0,0,1,46.85-44,.66.66,0,0,1,.86.37.66.66,0,0,1-.38.87,83.92,83.92,0,0,0-47.51,46.55c-.26,4.35-.63,8.7-1.17,13a120.19,120.19,0,0,1-5.6,25.24v0a2,2,0,1,1-3.72-1.39,115.3,115.3,0,0,0,5.65-23.56c-3-3.88-19.13-22.64-54.81-32.53A.67.67,0,0,1,696.19,394.22Z"/><polygon class="cls-10" points="782.03 448.74 779.69 457.66 769.81 495.33 727.89 495.33 718.01 457.66 715.67 448.74 782.03 448.74"/><path class="cls-27" d="M783.33,451.57,782.09,456a2.24,2.24,0,0,1-2.15,1.63H717.76a2.24,2.24,0,0,1-2.15-1.63l-1.24-4.46a2.23,2.23,0,0,1,2.15-2.83h64.66A2.23,2.23,0,0,1,783.33,451.57Z"/><path class="cls-28" d="M785.65,25.75h-.95A25.92,25.92,0,0,0,758.63,0a25.64,25.64,0,0,0-22.25,12.72,15.46,15.46,0,0,0-3.82-.32,19.59,19.59,0,0,0-18.44,13.35h-1.59a18.13,18.13,0,0,0,0,36.25H785a18.12,18.12,0,0,0,18.12-18.13C803.78,34,795.51,25.75,785.65,25.75Z"/><path class="cls-29" d="M727.47,13.35a17.94,17.94,0,0,0-6.35,3.5,3.61,3.61,0,0,0,2.22,6.36h0a2.9,2.9,0,0,0,2.23-1,10.8,10.8,0,0,1,3.81-1.9,3.46,3.46,0,0,0,2.55-3.5h0C731.92,14.31,729.7,12.4,727.47,13.35Z"/><path class="cls-29" d="M746.23,12.4a4.58,4.58,0,0,0,2.23-.64,17.85,17.85,0,0,1,20.34,0,3,3,0,0,0,2.23.64h0a4.24,4.24,0,0,0,2.54-7.63A26.13,26.13,0,0,0,758.63,0a25.33,25.33,0,0,0-14.94,4.77c-3.18,2.22-1.27,7.63,2.54,7.63Z"/><rect class="cls-3" x="608.37" y="81.2" width="56.32" height="70.35" rx="2.3"/><rect class="cls-10" x="615.5" y="88.56" width="56.32" height="70.35" rx="2.3"/><rect class="cls-3" x="624.92" y="95.68" width="56.32" height="70.35" rx="2.3"/><rect class="cls-10" x="631.59" y="103.04" width="56.32" height="70.35" rx="2.3"/><rect class="cls-3" x="649.98" y="114.54" width="29.2" height="4.6" rx="2.3"/><rect class="cls-3" x="641.48" y="125.34" width="37.7" height="4.6" rx="2.3"/><rect class="cls-3" x="641.48" y="135.92" width="37.7" height="4.6" rx="2.3"/><rect class="cls-3" x="641.48" y="146.72" width="37.7" height="4.6" rx="2.3"/><rect class="cls-3" x="641.48" y="157.53" width="37.7" height="4.6" rx="2.3"/></g></g></svg>